# xmcd CD database file
#
# Track frame offsets:
#	150
#	25262
#	37053
#
# Disc length: 638 seconds
#
# Revision: 0
# Processed by: cddbd v1.5PL3 Copyright (c) Steve Scherf et al.
# Submitted via: CDex 1.40Release
#
DISCID=1f027c03
DTITLE=大正九年 - パパパラブロマンス
DYEAR=1999
DGENRE=Pop
TTITLE0=パパパラブロマンス
TTITLE1=コドモそんぐ
TTITLE2=Element Lince
EXTD=YEAR: 1999 ID3G: 13
EXTT0=
EXTT1=
EXTT2=
PLAYORDER=
